<?xml version="1.0" standalone="no"?>
<!DOCTYPE svg PUBLIC "-//W3C//DTD SVG 20010904//EN"
 "http://www.w3.org/TR/2001/REC-SVG-20010904/DTD/svg10.dtd">
<svg version="1.0" xmlns="http://www.w3.org/2000/svg"
 width="384.000000pt" height="384.000000pt" viewBox="0 0 384.000000 384.000000"
 preserveAspectRatio="xMidYMid meet">
<metadata>
Created by potrace 1.14, written by Peter Selinger 2001-2017
</metadata>
<g transform="translate(0.000000,384.000000) scale(0.100000,-0.100000)"
fill="#000000" stroke="none">
<path d="M1975 3210 c-38 -10 -92 -29 -120 -41 -27 -13 -68 -24 -90 -26 -89
-6 -230 -66 -291 -125 -22 -21 -44 -30 -72 -33 -71 -5 -96 -24 -103 -77 -4
-28 -20 -66 -39 -93 -25 -37 -89 -160 -95 -185 -1 -3 -6 -16 -12 -30 -12 -26
-25 -65 -23 -65 1 0 -3 -12 -9 -28 -19 -50 -29 -128 -36 -287 -4 -99 -18 -264
-24 -278 0 -2 -16 5 -33 16 -33 19 -68 19 -68 1 0 -6 -4 -8 -10 -4 -5 3 -19
-13 -30 -35 -28 -54 -30 -140 -6 -255 1 -5 5 -19 9 -30 3 -11 8 -31 11 -45 7
-44 47 -152 64 -176 13 -19 25 -24 52 -22 29 2 35 -1 36 -17 1 -11 11 -55 23
-98 40 -147 119 -276 245 -403 75 -76 191 -164 215 -164 6 0 11 -4 11 -9 0 -5
16 -15 35 -22 19 -7 35 -17 35 -22 0 -4 4 -6 9 -2 5 3 12 1 15 -4 13 -20 129
-51 206 -55 144 -8 429 130 591 285 88 85 164 204 209 326 21 59 24 62 51 56
23 -4 34 1 58 28 17 18 28 35 26 37 -2 3 4 17 15 32 11 16 20 30 20 33 0 2 8
22 17 43 9 22 18 44 19 49 1 6 9 27 18 48 9 20 13 37 10 37 -4 0 -1 6 5 14 10
12 21 66 23 121 2 27 -12 75 -28 100 -15 23 -78 33 -89 15 -3 -5 -10 -10 -15
-10 -10 0 -6 189 5 275 9 63 14 257 7 269 -3 5 -7 26 -8 47 -2 20 -15 68 -28
106 -13 37 -24 92 -25 122 -1 30 -4 58 -7 63 -3 4 3 11 13 15 10 3 33 12 51
19 l33 13 -22 42 c-33 66 -154 179 -229 215 -84 40 -202 76 -297 91 -39 6 -39
8 -12 52 24 40 20 47 -53 71 -69 23 -174 23 -263 0z"/>
</g>
</svg>
